<svg width="28" height="28" viewBox="0 0 28 28" fill="none" xmlns="http://www.w3.org/2000/svg">
<path d="M22.659 11.5286C22.7961 11.4179 23 11.5214 23 11.6964V19C23 19.9464 22.2441 20.7143 21.3125 20.7143H6.6875C5.75586 20.7143 5 19.9464 5 19V11.7C5 11.5214 5.20039 11.4214 5.34102 11.5321C6.12852 12.1536 7.17266 12.9429 10.7586 15.5893C11.5004 16.1393 12.752 17.2964 14 17.2893C15.2551 17.3 16.5312 16.1179 17.2449 15.5893C20.8309 12.9429 21.8715 12.15 22.659 11.5286ZM14 16.1429C14.8156 16.1571 15.9898 15.1 16.5805 14.6643C21.2457 11.225 21.6008 10.925 22.6766 10.0679C22.8805 9.90714 23 9.65714 23 9.39286V8.71429C23 7.76786 22.2441 7 21.3125 7H6.6875C5.75586 7 5 7.76786 5 8.71429V9.39286C5 9.65714 5.11953 9.90357 5.32344 10.0679C6.39922 10.9214 6.7543 11.225 11.4195 14.6643C12.0102 15.1 13.1844 16.1571 14 16.1429Z" fill="white"/>
</svg>
