<svg width="28" height="28" viewBox="0 0 28 28" fill="none" xmlns="http://www.w3.org/2000/svg">
<path d="M22.3466 5.86523L18.6903 5.02147C18.2931 4.93007 17.8853 5.13749 17.7235 5.51015L16.036 9.44769C15.8884 9.79222 15.9868 10.1965 16.2786 10.4321L18.4091 12.1758C17.1434 14.8723 14.9321 17.1153 12.1793 18.4056L10.4356 16.2751C10.1965 15.9833 9.79572 15.8849 9.45119 16.0325L5.51365 17.72C5.13748 17.8853 4.93005 18.2931 5.02146 18.6904L5.86522 22.3466C5.95311 22.7263 6.29061 23.0005 6.68788 23.0005C15.6915 23.0005 23.0005 15.7056 23.0005 6.6879C23.0005 6.29414 22.7298 5.95312 22.3466 5.86523Z" fill="white"/>
</svg>
