<svg width="28" height="28" viewBox="0 0 28 28" fill="none" xmlns="http://www.w3.org/2000/svg">
<path d="M17.0938 9.875C16.6016 6.74609 15.3711 4.53125 14 4.53125C12.5938 4.53125 11.3984 6.74609 10.8711 9.875H17.0938ZM10.625 13.25C10.625 14.0586 10.6602 14.7969 10.7305 15.5H17.2344C17.3047 14.7969 17.3398 14.0586 17.3398 13.25C17.3398 12.4766 17.3047 11.7383 17.2344 11H10.7305C10.6602 11.7383 10.625 12.4766 10.625 13.25ZM22.0156 9.875C21.0312 7.51953 18.9922 5.65625 16.4609 4.91797C17.3398 6.11328 17.9023 7.90625 18.2188 9.875H22.0156ZM11.5039 4.91797C8.97266 5.65625 6.93359 7.51953 5.94922 9.875H9.74609C10.0625 7.90625 10.625 6.11328 11.5039 4.91797ZM22.4023 11H18.3594C18.4297 11.7383 18.5 12.5117 18.5 13.25C18.5 14.0234 18.4297 14.7617 18.3594 15.5H22.4023C22.5781 14.7969 22.6836 14.0586 22.6836 13.25C22.6836 12.4766 22.5781 11.7383 22.4023 11ZM9.5 13.25C9.5 12.5117 9.53516 11.7383 9.60547 11H5.5625C5.38672 11.7383 5.28125 12.4766 5.28125 13.25C5.28125 14.0586 5.38672 14.7969 5.5625 15.5H9.60547C9.53516 14.7617 9.5 14.0234 9.5 13.25ZM10.8711 16.625C11.3984 19.7891 12.5938 21.9688 14 21.9688C15.3711 21.9688 16.6016 19.7891 17.0938 16.625H10.8711ZM16.4609 21.6172C18.9922 20.8789 21.0312 19.0156 22.0156 16.625H18.2188C17.9375 18.6289 17.3398 20.4219 16.4609 21.6172ZM5.94922 16.625C6.93359 19.0156 8.97266 20.8789 11.5039 21.6172C10.625 20.4219 10.0625 18.6289 9.74609 16.625H5.94922Z" fill="white"/>
</svg>
